<svg xmlns="http://www.w3.org/2000/svg" viewBox="0 0 512 512">
  <path fill="#fff" d="M 64,32 C 28.65,32 0,60.65 0,96 v 320 c 0,35.3 28.65,64 64,64 h 384 c 35.3,0 64,-28.7 64,-64 V 96 C 512,60.65 483.3,32 448,32 Z m 0,64 c 128,0 256,0 384,0 v 320 c -128,0 -256,0 -384,0 z m 182,28.52734 v 262.94532 h 22 V 124.52734 Z" />
  <path fill="#fff" d="m 186.81892,180.66143 c -12.25808,0.76551 -17.96668,13.50905 -26.61356,20.28687 -15.58075,16.39278 -33.16416,31.13354 -47.27512,48.79321 -4.0855,9.29219 2.78939,18.77866 10.09922,24.02983 19.1732,18.53891 37.00376,38.59231 57.19375,56.00728 11.59502,6.28738 27.33763,-7.35964 21.67579,-19.66992 -4.34142,-10.06283 -14.81383,-15.2758 -21.33624,-23.70538 -10.16266,-10.16266 -20.32532,-20.32532 -30.48798,-30.48798 16.9997,-17.81564 35.98195,-34.02522 51.5957,-53.07617 4.60995,-9.90721 -3.84461,-22.82682 -14.85156,-22.17774 z" />
  <path fill="#fff" d="m 325.18108,331.33857 c 12.25808,-0.76551 17.96668,-13.50905 26.61356,-20.28687 15.58075,-16.39278 33.16416,-31.13354 47.27512,-48.79321 4.0855,-9.29219 -2.78939,-18.77866 -10.09922,-24.02983 -19.1732,-18.53892 -37.00376,-38.59232 -57.19375,-56.00729 -11.59502,-6.28738 -27.33763,7.35964 -21.67579,19.66992 4.34142,10.06283 14.81383,15.2758 21.33624,23.70538 10.16266,10.16267 20.32532,20.32533 30.48798,30.48799 -16.9997,17.81564 -35.98195,34.02522 -51.5957,53.07617 -4.60995,9.90721 3.84461,22.82682 14.85156,22.17774 z" />
</svg>

