<?xml version="1.0" standalone="no"?>
<!DOCTYPE svg PUBLIC "-//W3C//DTD SVG 20010904//EN"
 "http://www.w3.org/TR/2001/REC-SVG-20010904/DTD/svg10.dtd">
<svg version="1.0" xmlns="http://www.w3.org/2000/svg"
 width="678.000000pt" height="678.000000pt" viewBox="0 0 678.000000 678.000000"
 preserveAspectRatio="xMidYMid meet">
<metadata>
Created by potrace 1.11, written by Peter Selinger 2001-2013
</metadata>
<g transform="translate(0.000000,678.000000) scale(0.100000,-0.100000)"
fill="#000000" stroke="none">
<path d="M3879 5786 c-2 -2 -42 -7 -89 -10 -47 -3 -96 -8 -110 -11 -14 -3 -41
-8 -60 -11 -41 -7 -113 -28 -190 -56 -54 -19 -220 -97 -230 -108 -3 -3 -21
-14 -40 -24 -119 -65 -214 -149 -648 -581 -327 -325 -474 -478 -528 -550 -41
-55 -79 -105 -84 -111 -18 -23 -100 -181 -129 -250 -38 -89 -77 -224 -88 -301
-10 -70 -9 -306 0 -348 4 -16 10 -46 13 -65 3 -19 10 -43 15 -52 5 -10 7 -18
5 -18 -10 0 46 -136 86 -210 92 -172 123 -205 1073 -1158 l920 -923 480 482
c482 483 537 546 634 711 39 67 111 227 111 247 0 6 4 19 10 29 8 16 46 178
49 212 21 250 -13 446 -110 641 -42 85 -138 230 -181 272 -33 33 -35 46 -10
73 17 18 74 96 97 132 60 94 142 251 150 287 1 5 7 23 14 39 14 34 49 167 57
217 14 80 13 296 -1 368 -21 105 -60 221 -105 310 -38 76 -134 224 -167 259
-10 10 -43 45 -74 78 -163 173 -331 289 -510 355 -109 40 -186 57 -290 64 -26
1 -51 5 -57 9 -5 3 -11 4 -13 2z m141 -206 c80 -15 167 -44 242 -81 60 -30
203 -125 235 -156 19 -18 0 -37 -809 -848 -501 -503 -852 -862 -888 -910 -33
-44 -64 -85 -68 -90 -5 -6 -11 -15 -13 -20 -2 -6 -21 -39 -41 -75 -33 -58
-102 -211 -113 -252 -2 -5 -4 -10 -5 -13 -1 -3 -3 -8 -4 -12 -2 -5 -8 -26 -14
-48 -6 -22 -14 -53 -16 -70 -3 -16 -9 -41 -12 -55 -12 -52 -12 -301 1 -355 7
-30 9 -55 5 -55 -13 0 -435 435 -465 480 -16 25 -35 50 -42 57 -20 22 -112
217 -123 263 -46 190 -47 336 -4 504 42 161 143 357 258 501 40 50 888 902
936 940 76 61 273 186 300 191 3 0 30 12 60 26 179 83 395 112 580 78z m693
-466 c187 -249 246 -497 191 -789 -22 -116 -138 -374 -206 -460 -5 -5 -27 -35
-50 -65 -23 -30 -240 -255 -482 -498 -502 -505 -448 -449 -507 -527 -159 -209
-266 -461 -294 -690 -6 -53 -7 -191 0 -235 2 -19 7 -56 10 -82 4 -26 10 -62
16 -80 7 -27 -35 11 -219 198 -250 253 -253 257 -304 329 -83 117 -161 302
-175 415 -11 86 -5 255 11 325 9 39 19 81 22 95 3 13 10 30 16 37 6 7 8 13 5
13 -4 0 6 28 22 63 15 34 34 77 42 95 7 17 17 32 20 32 4 0 9 8 12 19 2 10 31
58 63 107 50 77 175 207 898 932 462 463 843 842 847 842 3 0 31 -34 62 -76z
m-34 -1678 c28 -35 51 -68 51 -74 0 -6 4 -12 8 -14 24 -9 127 -231 138 -298 3
-14 7 -32 10 -40 17 -48 22 -213 9 -310 -10 -72 -48 -204 -80 -273 -14 -31
-25 -58 -25 -60 0 -7 -82 -151 -90 -157 -3 -3 -18 -25 -34 -49 -43 -66 -61
-85 -469 -495 l-378 -379 -29 33 c-16 18 -42 51 -57 74 -15 22 -31 42 -35 44
-5 2 -8 8 -8 13 0 5 -11 26 -24 47 -27 44 -93 204 -100 247 -3 17 -9 51 -14
76 -21 110 -6 263 42 449 8 29 77 185 98 220 105 174 132 206 532 608 220 221
401 402 402 402 1 0 25 -29 53 -64z"/>
</g>
</svg>
