<svg version="1.1" xmlns="http://www.w3.org/2000/svg"
     viewBox="0 0 512 512">
  <path fill="#fff" d="m 63.5,52 c -35,0 -63,29 -63,64 v 280 c 0,35 28,64 63,64 H 447 c 35,0 65,-29 65,-64 V 116 C 512,81 483,52 447,52 Z m 78.5,80 c 51,0 93,42 93,93 0,51 -42,93 -93,93 -51.4,0 -93,-42 -93,-93 0,-51 41.6,-93 93,-93 z m 172,15 h 113 c 19,0 34,15 34,34 0,19 -15,34 -34,34 H 314 c -19,0 -34,-15 -34,-34 0,-19 15,-34 34,-34 z m -13,111 h 116 c 11,0 21,10 21,21 0,12 -10,22 -21,22 H 301 c -11,0 -21,-10 -21,-22 0,-11 10,-21 21,-21 z"/>
</svg>
