<svg
   xmlns="http://www.w3.org/2000/svg"
   viewBox="0 0 448 512">
  <!--! Font Awesome Pro 6.1.1 by @fontawesome - https://fontawesome.com License - https://fontawesome.com/license (Commercial License) Copyright 2022 Fonticons, Inc. -->
  <path fill="#fff"
     d="M 256,416 H 32 c -17.67,0 -32,14.33 -32,32 0,17.67 14.33,32 32,32 h 224 c 17.7,0 32,-14.33 32,-32 0,-17.67 -14.3,-32 -32,-32 z m 0,-256 H 32 c -17.67,0 -32,14.3 -32,32 0,17.7 14.33,32 32,32 h 224 c 17.7,0 32,-14.3 32,-32 0,-17.7 -14.3,-32 -32,-32 z M 0,320 c 0,17.7 14.33,32 32,32 h 384 c 17.7,0 32,-14.3 32,-32 0,-17.7 -14.3,-32 -32,-32 H 32 C 14.33,288 0,302.3 0,320 Z M 416,32 H 32 C 14.33,32 0,46.3 0,64 0,81.7 14.33,96 32,96 h 384 c 17.7,0 32,-14.3 32,-32 0,-17.7 -14.3,-32 -32,-32 z" />
</svg>
