<?xml version="1.0" encoding="UTF-8" standalone="no"?>
<svg
   xmlns="http://www.w3.org/2000/svg"
   viewBox="0 0 448 512"
   version="1.1"
   id="svg89">
    <path
       id="path87-6"
       d="m 63.999998,32 c -35.3,0 -64,28.7 -64,64 v 200 c 0,35.3 28.7,64 64,64 H 272 c 35.3,0 64,-28.7 64,-64 V 96 C 336,60.7 307.3,32 272,32 Z" />
    <path
       id="path87-3"
       d="m 363.49414,144 v 48 H 384 c 8.8,0 16,7.2 16,16 v 200 c 0,8.8 -7.2,16 -16,16 H 176 c -8.8,0 -16,-7.2 -16,-16 V 386.83984 H 112 V 408 c 0,35.3 28.7,64 64,64 h 208 c 35.3,0 64,-28.7 64,-64 V 208 c 0,-35.3 -28.7,-64 -64,-64 z"
       style="fill:#000000" />
</svg>
