<?xml version="1.0" encoding="UTF-8" standalone="no"?>
<svg
   xmlns="http://www.w3.org/2000/svg"
   viewBox="0 0 448 512"
   version="1.1"
   id="svg89"
>
  <g
     id="g272"
     transform="translate(0,4)">
    <path
       id="path87-6"
       d="m 363.49414,144 v 168.36523 c 0,41.07699 -33.39763,74.47461 -74.47461,74.47461 H 112 V 408 c 0,35.3 28.7,64 64,64 h 208 c 35.3,0 64,-28.7 64,-64 V 208 c 0,-35.3 -28.7,-64 -64,-64 z"
        />
    <path
       id="path87"
       d="m 272,80 c 8.8,0 16,7.2 16,16 v 200 c 0,8.8 -7.2,16 -16,16 H 64 c -8.8,0 -16,-7.2 -16,-16 V 96 C 48,87.2 55.2,80 64,80 Z M 64,32 C 28.7,32 0,60.7 0,96 v 200 c 0,35.3 28.7,64 64,64 h 208 c 35.3,0 64,-28.7 64,-64 V 96 C 336,60.7 307.3,32 272,32 Z" />
  </g>
</svg>
