<svg xmlns="http://www.w3.org/2000/svg" viewBox="0 0 512 512" aria-hidden="true" focusable="false" >
  <path d="M 360 0 C 321 -0.001 282 14.8 253 44.4 L 185 112 C 185 112 185 112 185 112 C 185 112 185 112 184 113 L 241 169 C 241 169 242 169 242 168 L 309 101 C 337 72.8 383 72.9 411 102 C 439 130 438 175 410 203 L 397 217 C 393 221 391 227 393 233 C 399 250 402 268 403 286 C 404 300 421 306 430 297 L 468 259 C 527 200 527 104 468 44.4 C 438 14.8 399 0.001 360 0 z M 297 165 C 293 165 289 167 286 170 L 264 191 C 264 191 264 192 264 192 L 371 299 C 373 258 358 217 327 185 A 152 152 0 0 0 306 168 C 303 166 300 165 297 165 z M 93.3 211 C 89.2 211 84.9 212 81.6 215 L 44.5 253 C -14.8 312 -14.8 408 44.5 468 C 104 527 200 527 259 468 L 327 400 C 327 400 327 400 327 400 C 327 400 327 400 327 399 L 271 343 C 271 343 270 343 270 344 L 203 411 C 175 439 129 439 101 410 C 72.8 382 73.6 337 102 309 L 115 295 C 119 291 121 285 119 279 C 113 262 109 244 109 226 C 109 217 101 211 93.3 211 z M 141 213 C 139 254 154 295 185 327 A 152 152 0 0 0 206 344 C 212 348 221 348 226 342 L 248 321 C 248 321 248 320 248 320 L 141 213 z"/>
  <line x1="64" y1="64" x2="448" y2="448" stroke="currentColor" stroke-width="48" stroke-linecap="round" style="stroke:#000000;stroke-opacity:1;stroke-width:68.787;stroke-miterlimit:4;stroke-dasharray:none"/>
</svg>
