<?xml version="1.0" encoding="UTF-8"?>
<svg
   xmlns="http://www.w3.org/2000/svg"
   viewBox="0 0 512 512"
   version="1.1">
  <path
     d="M 63.099609 32 C 28.639609 32 -0.009765625 60.65 -0.009765625 96 L -0.009765625 416 C -0.009765625 451.35 28.641797 480 63.091797 480 L 447.0918 480 C 482.4418 480 511.0918 451.35 511.0918 416 L 511.0918 96 C 511.1009 60.65 483.29961 32 447.09961 32 L 63.099609 32 z M 147.62305 91.271484 C 194.82656 91.271484 233.12305 127.19517 233.12305 171.47461 C 233.12305 207.98427 181.0205 272.98443 158.17578 299.80273 C 152.69839 306.19401 142.54575 306.19401 137.06836 299.80273 C 114.22363 272.98443 62.121094 207.98427 62.121094 171.47461 C 62.121094 127.19517 100.41953 91.271484 147.62305 91.271484 z M 147.62305 133.9043 A 38.686943 36.290436 0 0 0 108.93555 170.19336 A 38.686943 36.290436 0 0 0 147.62305 206.48438 A 38.686943 36.290436 0 0 0 186.30859 170.19336 A 38.686943 36.290436 0 0 0 147.62305 133.9043 z M 364.37695 207.4043 C 411.58047 207.4043 449.87891 243.32993 449.87891 287.60938 C 449.87891 324.11903 397.77637 389.11725 374.93164 415.93555 C 369.45425 422.32683 359.30162 422.32683 353.82422 415.93555 C 330.9795 389.11725 278.87695 324.11903 278.87695 287.60938 C 278.87695 243.32992 317.17343 207.4043 364.37695 207.4043 z M 364.37695 250.03711 A 38.686943 36.290436 0 0 0 325.69141 286.32617 A 38.686943 36.290436 0 0 0 364.37695 322.61719 A 38.686943 36.290436 0 0 0 403.06445 286.32617 A 38.686943 36.290436 0 0 0 364.37695 250.03711 z "
     style="fill:#ffffff" />
</svg>
