<svg aria-hidden="true" focusable="false" data-prefix="fas" data-icon="volume-mute" class="svg-inline--fa fa-volume-mute fa-w-16" role="img" xmlns="http://www.w3.org/2000/svg" viewBox="0 0 512 512"><path d="m 232.35938,64.009766 c -0.39117,-0.0089 -0.78371,-0.0083 -1.17579,0.002 -5.70289,0.149548 -11.46367,2.348437 -16.15429,7.039062 L 126.06055,160 H 24 C 10.74,160 0,170.74 0,184 v 144 c 0,13.25 10.74,24 24,24 h 102.06055 l 88.96875,88.94922 c 15.03,15.03 40.9707,4.47125 40.9707,-16.96875 V 88.019531 C 256,73.726836 244.48559,64.2867 232.35938,64.009766 Z m 149.5,31.99414 c -8.10621,-0.16023 -16.09719,3.8143 -20.75,11.216794 -7.09002,11.28 -3.77985,26.20938 7.41015,33.35938 C 408.26953,165.97008 432,209.11 432,256 c 0,46.89 -23.73047,90.02992 -63.48047,115.41992 -11.19,7.14 -14.50016,22.06938 -7.41015,33.35938 6.50999,10.36 21.12109,15.14093 33.12109,7.46093 C 447.94047,377.94023 480,319.54 480,256 480,192.47 447.94047,134.05977 394.23047,99.759766 c -3.84656,-2.454375 -8.125,-3.67193 -12.37109,-3.75586 z m -55.03126,80.173824 c -8.5099,-0.0456 -16.79523,4.42047 -21.20898,12.40235 -6.39,11.61 -2.15883,26.19937 9.45117,32.60937 C 327.98031,228.27945 336,241.63 336,256 c 0,14.38 -8.01992,27.72055 -20.91992,34.81055 -11.61,6.41 -15.83922,20.99937 -9.44922,32.60937 6.43,11.66 21.04937,15.79922 32.60937,9.44922 28.23,-15.55 45.76954,-44.99891 45.76954,-76.87891 0,-31.88 -17.5393,-61.31937 -45.7793,-76.85937 -3.61875,-1.97813 -7.53421,-2.9324 -11.40235,-2.95313 z"></path></svg>
