<?xml version="1.0" encoding="UTF-8" standalone="no"?>
<svg
   xmlns:svg="http://www.w3.org/2000/svg"
   xmlns="http://www.w3.org/2000/svg"
   viewBox="0 0 448 512"
   version="1.1">
  <path
     style="fill:#ffffff;stroke-width:1.0715934"
     d="M 154.45629,72.962988 C 141.76916,73.980674 134.17753,85.77696 126.39089,94.31369 115.08265,105.89861 104.03984,117.73757 92.93941,129.52047 75.031239,111.21828 59.122369,90.77981 39.104383,74.658023 24.482281,67.834512 6.4140221,83.81238 10.775786,99.1746 c 2.708951,12.98866 15.286417,19.97415 22.964661,29.74046 17.657732,17.41285 32.403074,38.12856 52.621136,52.73529 10.829773,3.83939 22.062597,-3.51996 28.134937,-12.18527 19.44195,-22.50249 42.21653,-42.18327 59.90279,-66.14032 5.6424,-13.25737 -5.31055,-30.615753 -19.94302,-30.361772 z"
  <path
     style="fill:#ffffff"
     d="M 256,428 H 31.999999 C 14.329999,428 -9.5000001e-7,442.33 -9.5000001e-7,460 -9.5000001e-7,477.67 14.329999,492 31.999999,492 H 256 c 17.7,0 32,-14.33 32,-32 0,-17.67 -14.3,-32 -32,-32 z M -9.5000001e-7,332 C -9.5000001e-7,349.7 14.329999,364 31.999999,364 H 416 c 17.7,0 32,-14.3 32,-32 0,-17.7 -14.3,-32 -32,-32 H 31.999999 C 14.329999,300 -9.5000001e-7,314.3 -9.5000001e-7,332 Z" />
  <path
     style="fill:#ffffff;stroke:#ffffff;stroke-width:0"
     d="m 356.05605,1.671899 c -22.75276,2.300391 -47.49513,-4.661754 -68.50543,6.450454 -16.00534,8.484395 -29.74636,27.036262 -24.98608,45.803882 5.50667,15.699356 29.05588,21.427535 39.82967,7.900392 4.46727,-4.523763 5.45002,-13.464333 13.29935,-12.285569 15.47565,-0.207336 30.89377,0.32159 46.37678,-0.223975 7.3323,-0.346315 15.23462,5.874856 12.62272,13.740223 -2.68086,9.147994 -13.45058,10.823444 -20.24491,15.836144 -11.40111,6.6584 -24.83231,11.40873 -32.94777,22.30075 -5.41404,11.18313 -4.76974,25.17905 -0.0141,36.40876 8.15241,13.79679 31.57231,15.50575 40.17388,0.85347 4.19853,-4.46787 1.87713,-12.57946 8.75385,-14.22118 18.79687,-10.20424 40.72904,-20.78924 48.43263,-42.36648 C 431.32621,52.120851 413.71956,13.332394 382.01823,4.732093 373.62266,2.216616 364.78493,1.519639 356.05609,1.671899 Z M 341.22896,172.48634 c -21.90876,-0.63629 -38.00737,26.58485 -26.67177,45.4856 9.43025,18.07827 37.60246,22.17393 50.69123,5.8469 12.093,-13.5735 9.43272,-37.5803 -6.86539,-46.64791 -5.10378,-3.1728 -11.1363,-4.88155 -17.15407,-4.68459 z" />
</svg>
