<?xml version="1.0" encoding="UTF-8" standalone="no"?>
<!DOCTYPE svg PUBLIC "-//W3C//DTD SVG 1.1//EN" "http://www.w3.org/Graphics/SVG/1.1/DTD/svg11.dtd">
<svg viewBox="-0.4449225 -0.4449225 51.921396 15.720595">
  <path
          d="m 31.1888,14.83075 3.73125,0 0,-4.7725 0.285,0 c 0.425,0 1.49625,-0.0237 2.07875,0.91875 l 2.2925,3.85375 4.015,0 -2.08875,-3.50875 c -0.69,-1.17625 -1.2575,-1.80625 -1.70375,-2.13 l 0,-0.0388 c 1.25875,-0.44625 2.63625,-1.5225 2.63625,-3.715 0,-2.71625 -1.94625,-4.11625 -5.39375,-4.11625 l -5.8525,0 0,4.68875 -0.0375,0 C 30.44255,3.18195 28.0563,1.32195 23.69755,1.32195 l -8.2525,0 -1.2575,5.51625 c -0.26375,1.13625 -0.4875,2.5775 -0.4875,2.5775 l -0.04,0 c 0,0 -0.28375,-1.6025 -0.5475,-2.74 l -1.07625,-5.35375 -4.53,0 -1.07625,5.35375 c -0.26375,1.1375 -0.5475,2.74 -0.5475,2.74 l -0.0413,0 c 0,0 -0.2225,-1.44125 -0.48625,-2.5775 L 4.0975,1.32195 0,1.32195 3.61,14.8307 l 4.12125,0 2.04875,-8.66125 0.0213,0 0.0188,0 2.04875,8.66125 4.05625,0 3.005,-11.21625 0.04,0 0,1.04875 0,10.1675 4.60625,0 c 4.42,0 6.85875,-2.0275 7.57625,-4.92625 l 0.0362,0 0,4.92625 z m -7.30875,-3.0625 -1.135,0 0,-7.38375 1.03375,0 c 2.475,0 3.59,1.095 3.59,3.61125 0,2.47375 -1.115,3.7725 -3.48875,3.7725 m 13.08,-4.565 -2.04,0 0,-3.02125 1.9175,0 c 1.27875,0 1.80625,0.50625 1.80625,1.52 0,0.93375 -0.5475,1.50125 -1.68375,1.50125"
          id="path3491"
          style="fill:#00375a;fill-opacity:1;fill-rule:nonzero;stroke:none"/>
  <path
          d="m 48.9628,4.88625 0,-3.4825 -3.4825,1.2575 0,0.865 1.1525,-0.41875 0,2.61625 2.33,-0.8375 z M 47.5728,0 c 1.91,0 3.45875,1.5575 3.45875,3.4775 0,1.92125 -1.54875,3.4775 -3.45875,3.4775 -1.91,0 -3.45875,-1.55625 -3.45875,-3.4775 C 44.11405,1.5575 45.6628,0 47.5728,0 m 0,0.51 c -1.63,0 -2.95125,1.32875 -2.95125,2.9675 0,1.63875 1.32125,2.9675 2.95125,2.9675 1.63,0 2.9525,-1.32875 2.9525,-2.9675 0,-1.63875 -1.3225,-2.9675 -2.9525,-2.9675"
          id="path3495"
          style="fill:#00375a;fill-opacity:1;fill-rule:nonzero;stroke:none"/>
</svg>
