<svg xmlns="http://www.w3.org/2000/svg" viewBox="0 0 512 512">
<!--!Font Awesome Free 6.7.1 by @fontawesome - https://fontawesome.com License - https://fontawesome.com/license/free Copyright 2024 Fonticons, Inc.--><path fill="#fff" d="M 446,37.9 C 341,38.2 236,37.8 132,38 106,38.4 80.7,37.3 55.3,38.5 26.6,42.6 3.13,70.8 6.21,100 5.84,203 5.94,305 6.15,408 c -0.18,12 0.3,26 7.25,36 11.2,20 34.2,33 57,30 128.6,0 256.6,0 384.6,0 30,-4 55,-34 51,-64 0,-107 0,-215 0,-322.2 C 501,59.7 475,36.7 446,37.9 Z M 60,90 c 24.7,0 49,0 74,0 0,25 0,51 0,76 -25,0 -50.7,0 -76,0 0,-25 0,-51 0,-76 h 1 z m 128,0 c 89,0 177,0 266,0 0,25 0,51 0,76 -89,0 -179,0 -268,0 0,-25 0,-51 0,-76 h 1 z M 60,218 c 24.7,0 49,0 74,0 0,25 0,51 0,76 -25,0 -50.7,0 -76,0 0,-25 0,-51 0,-76 h 1 z m 128,0 c 89,0 177,0 266,0 0,25 0,51 0,76 -89,0 -179,0 -268,0 0,-25 0,-51 0,-76 h 1 z M 60,346 c 24.7,0 49,0 74,0 0,25 0,51 0,76 -25,0 -50.7,0 -76,0 0,-25 0,-51 0,-76 h 1 z m 128,0 c 89,0 177,0 266,0 0,25 0,51 0,76 -89,0 -179,0 -268,0 0,-25 0,-51 0,-76 h 1 z" />
</svg>
