<?xml version="1.0" encoding="utf-8"?>
<!-- Generator: Adobe Illustrator 19.0.0, SVG Export Plug-In . SVG Version: 6.00 Build 0)  -->
<svg version="1.1" xmlns="http://www.w3.org/2000/svg"
     xmlns:xlink="http://www.w3.org/1999/xlink" x="0px" y="0px"
     viewBox="0 0 96 96" style="enable-background:new 0 0 96 96;" xml:space="preserve">
  <g>
	<path d="M67.5,18c-5.1,0-9.3,4.2-9.3,9.3c0,0.5,0.1,1.1,0.2,1.6l-23,12.9c-1.7-1.8-4.1-3-6.8-3
		c-5.1,0-9.3,4.1-9.3,9.3c0,5.1,4.1,9.3,9.3,9.3c2.7,0,5.2-1.2,6.9-3.1l22.8,13.4c0,0.4-0.1,0.7-0.1,1.1c0,5.1,4.1,9.3,9.3,9.3
		c5.1,0,9.3-4.1,9.3-9.3c0-5.1-4.1-9.3-9.3-9.3c-2.8,0-5.4,1.3-7.1,3.3L37.7,49.4c0.1-0.4,0.1-0.9,0.1-1.3c0-0.5,0-1-0.1-1.5
		l23.1-13c1.7,1.8,4.1,3,6.8,3c5.1,0,9.3-4.1,9.3-9.3C76.8,22.2,72.6,18,67.5,18L67.5,18z"/>
  </g>
</svg>
