<?xml version="1.0" encoding="utf-8"?>
<svg xmlns="http://www.w3.org/2000/svg" x="0px" y="0px"
	 viewBox="0 0 20 20" >
<path fill="#eee" d="M18.405,4.799C18.294,4.359,17.75,4,17.195,4h-6.814c-0.554,0-1.33-0.318-1.722-0.707L8.063,2.705
	C7.671,2.316,6.896,2,6.342,2H3.087c-0.555,0-1.059,0.447-1.12,0.994L1.675,6h16.931L18.405,4.799z M19.412,7H0.588
	c-0.342,0-0.61,0.294-0.577,0.635l0.923,9.669C0.971,17.698,1.303,18,1.7,18h16.6c0.397,0,0.728-0.302,0.766-0.696l0.923-9.669
	C20.022,7.294,19.754,7,19.412,7z"/>
</svg>
