<svg version="1.1" xmlns="http://www.w3.org/2000/svg" xmlns:xlink="http://www.w3.org/1999/xlink"
     viewBox="0 0 612 612" style="enable-background:new 0 0 612 612;" xml:space="preserve">
    <g>
      <path d="M573.75,57.375H38.25C17.136,57.375,0,74.511,0,95.625v420.75c0,21.133,17.136,38.25,38.25,38.25h535.5
				c21.133,0,38.25-17.117,38.25-38.25V95.625C612,74.511,594.883,57.375,573.75,57.375z M554.625,497.25H57.375V204.657
				l224.03,187.999c7.134,5.967,15.874,8.97,24.595,8.97c8.74,0,17.461-3.003,24.595-8.97l224.03-187.999V497.25z M554.625,129.763
				L306,338.379L57.375,129.763V114.75h497.25V129.763z"/>
    </g>
  </svg>