<?xml version="1.0" encoding="UTF-8" standalone="no"?>
<svg
   xmlns="http://www.w3.org/2000/svg"
   id="svg4"
   version="1.1"
   viewBox="0 0 448 512">
  <path
     d="M 61.345703 63.888672 C 44.725703 63.888672 31.345703 77.268672 31.345703 93.888672 L 31.345703 417.57031 C 31.345703 434.19031 44.725703 447.57031 61.345703 447.57031 L 385.02734 447.57031 C 401.64734 447.57031 415.02734 434.19031 415.02734 417.57031 L 415.02734 93.888672 C 415.02734 77.268672 401.64734 63.888672 385.02734 63.888672 L 61.345703 63.888672 z M 106 127.80078 L 341.13867 127.80078 C 346.67867 127.80078 351.13867 132.26078 351.13867 137.80078 L 351.13867 372.93945 C 351.13867 378.47945 346.67867 382.93945 341.13867 382.93945 L 106 382.93945 C 100.46 382.93945 96 378.47945 96 372.93945 L 96 137.80078 C 96 132.26078 100.46 127.80078 106 127.80078 z "
     fill="hsla(197, 26%, 23%, 0.8)" />
</svg>
